ISO-10303-21;
HEADER;
/* Generated by software containing ST-Developer
 * from STEP Tools, Inc. (www.steptools.com) 
 */
/* OPTION: using custom renumber hook */

FILE_DESCRIPTION(
/* description */ ('STEP AP242 Edition 2',
'CAx-IF Rec.Pracs.---Representation and Presentation of Product Manufa
cturing Information (PMI)---4.0---2014-10-13',
'CAx-IF Rec.Pracs.---3D Tessellated Geometry---0.4---2014-09-14','2;1',
'CAx-IF Rec.Pracs.---User Defined Attributes---1.5---2016-08-15'),
/* implementation_level */ '2;1');

FILE_NAME(
/* name */ 'PenMount',
/* time_stamp */ '2026-09-28T14:10:46Z',
/* author */ (''),
/* organization */ (''),
/* preprocessor_version */ 'ST-DEVELOPER v20',
/* originating_system */ 'ONSHAPE BY PTC INC, 1.221',
/* authorisation */ '  ');

FILE_SCHEMA (('AP242_MANAGED_MODEL_BASED_3D_ENGINEERING_MIM_LF { 1 0 10303 442 3 1 4 }'));
ENDSEC;

DATA;
#10=SHAPE_REPRESENTATION_RELATIONSHIP('','',#196,#11);
#11=ADVANCED_BREP_SHAPE_REPRESENTATION('',(#194),#312);
#12=CIRCLE('',#201,0.00615);
#13=CIRCLE('',#202,0.00615);
#14=CIRCLE('',#207,0.00465);
#15=CIRCLE('',#208,0.00465);
#16=CYLINDRICAL_SURFACE('',#200,0.00615);
#17=CYLINDRICAL_SURFACE('',#206,0.00465);
#18=ORIENTED_EDGE('',*,*,#64,.F.);
#19=ORIENTED_EDGE('',*,*,#65,.F.);
#20=ORIENTED_EDGE('',*,*,#66,.T.);
#21=ORIENTED_EDGE('',*,*,#67,.T.);
#22=ORIENTED_EDGE('',*,*,#68,.T.);
#23=ORIENTED_EDGE('',*,*,#69,.F.);
#24=ORIENTED_EDGE('',*,*,#70,.F.);
#25=ORIENTED_EDGE('',*,*,#65,.T.);
#26=ORIENTED_EDGE('',*,*,#71,.T.);
#27=ORIENTED_EDGE('',*,*,#72,.F.);
#28=ORIENTED_EDGE('',*,*,#73,.F.);
#29=ORIENTED_EDGE('',*,*,#69,.T.);
#30=ORIENTED_EDGE('',*,*,#74,.F.);
#31=ORIENTED_EDGE('',*,*,#75,.F.);
#32=ORIENTED_EDGE('',*,*,#76,.T.);
#33=ORIENTED_EDGE('',*,*,#72,.T.);
#34=ORIENTED_EDGE('',*,*,#77,.F.);
#35=ORIENTED_EDGE('',*,*,#78,.F.);
#36=ORIENTED_EDGE('',*,*,#79,.T.);
#37=ORIENTED_EDGE('',*,*,#75,.T.);
#38=ORIENTED_EDGE('',*,*,#80,.T.);
#39=ORIENTED_EDGE('',*,*,#81,.F.);
#40=ORIENTED_EDGE('',*,*,#82,.F.);
#41=ORIENTED_EDGE('',*,*,#78,.T.);
#42=ORIENTED_EDGE('',*,*,#83,.T.);
#43=ORIENTED_EDGE('',*,*,#84,.F.);
#44=ORIENTED_EDGE('',*,*,#85,.F.);
#45=ORIENTED_EDGE('',*,*,#67,.F.);
#46=ORIENTED_EDGE('',*,*,#86,.T.);
#47=ORIENTED_EDGE('',*,*,#81,.T.);
#48=ORIENTED_EDGE('',*,*,#83,.F.);
#49=ORIENTED_EDGE('',*,*,#66,.F.);
#50=ORIENTED_EDGE('',*,*,#70,.T.);
#51=ORIENTED_EDGE('',*,*,#73,.T.);
#52=ORIENTED_EDGE('',*,*,#76,.F.);
#53=ORIENTED_EDGE('',*,*,#79,.F.);
#54=ORIENTED_EDGE('',*,*,#82,.T.);
#55=ORIENTED_EDGE('',*,*,#86,.F.);
#56=ORIENTED_EDGE('',*,*,#84,.T.);
#57=ORIENTED_EDGE('',*,*,#64,.T.);
#58=ORIENTED_EDGE('',*,*,#85,.T.);
#59=ORIENTED_EDGE('',*,*,#80,.F.);
#60=ORIENTED_EDGE('',*,*,#77,.T.);
#61=ORIENTED_EDGE('',*,*,#74,.T.);
#62=ORIENTED_EDGE('',*,*,#71,.F.);
#63=ORIENTED_EDGE('',*,*,#68,.F.);
#64=EDGE_CURVE('',#87,#88,#103,.T.);
#65=EDGE_CURVE('',#89,#87,#104,.T.);
#66=EDGE_CURVE('',#89,#90,#105,.T.);
#67=EDGE_CURVE('',#90,#88,#106,.T.);
#68=EDGE_CURVE('',#87,#91,#107,.T.);
#69=EDGE_CURVE('',#92,#91,#108,.T.);
#70=EDGE_CURVE('',#89,#92,#109,.T.);
#71=EDGE_CURVE('',#91,#93,#12,.T.);
#72=EDGE_CURVE('',#94,#93,#110,.T.);
#73=EDGE_CURVE('',#92,#94,#13,.T.);
#74=EDGE_CURVE('',#95,#93,#111,.T.);
#75=EDGE_CURVE('',#96,#95,#112,.T.);
#76=EDGE_CURVE('',#96,#94,#113,.T.);
#77=EDGE_CURVE('',#97,#95,#114,.T.);
#78=EDGE_CURVE('',#98,#97,#115,.T.);
#79=EDGE_CURVE('',#98,#96,#116,.T.);
#80=EDGE_CURVE('',#97,#99,#117,.T.);
#81=EDGE_CURVE('',#100,#99,#118,.T.);
#82=EDGE_CURVE('',#98,#100,#119,.T.);
#83=EDGE_CURVE('',#101,#101,#14,.T.);
#84=EDGE_CURVE('',#102,#102,#15,.T.);
#85=EDGE_CURVE('',#88,#99,#120,.T.);
#86=EDGE_CURVE('',#90,#100,#121,.T.);
#87=VERTEX_POINT('',#264);
#88=VERTEX_POINT('',#265);
#89=VERTEX_POINT('',#267);
#90=VERTEX_POINT('',#269);
#91=VERTEX_POINT('',#273);
#92=VERTEX_POINT('',#275);
#93=VERTEX_POINT('',#279);
#94=VERTEX_POINT('',#281);
#95=VERTEX_POINT('',#285);
#96=VERTEX_POINT('',#287);
#97=VERTEX_POINT('',#291);
#98=VERTEX_POINT('',#293);
#99=VERTEX_POINT('',#297);
#100=VERTEX_POINT('',#299);
#101=VERTEX_POINT('',#303);
#102=VERTEX_POINT('',#305);
#103=LINE('',#263,#122);
#104=LINE('',#266,#123);
#105=LINE('',#268,#124);
#106=LINE('',#270,#125);
#107=LINE('',#272,#126);
#108=LINE('',#274,#127);
#109=LINE('',#276,#128);
#110=LINE('',#280,#129);
#111=LINE('',#284,#130);
#112=LINE('',#286,#131);
#113=LINE('',#288,#132);
#114=LINE('',#290,#133);
#115=LINE('',#292,#134);
#116=LINE('',#294,#135);
#117=LINE('',#296,#136);
#118=LINE('',#298,#137);
#119=LINE('',#300,#138);
#120=LINE('',#307,#139);
#121=LINE('',#308,#140);
#122=VECTOR('',#216,1.);
#123=VECTOR('',#217,1.);
#124=VECTOR('',#218,1.);
#125=VECTOR('',#219,1.);
#126=VECTOR('',#222,1.);
#127=VECTOR('',#223,1.);
#128=VECTOR('',#224,1.);
#129=VECTOR('',#229,1.);
#130=VECTOR('',#234,1.);
#131=VECTOR('',#235,1.);
#132=VECTOR('',#236,1.);
#133=VECTOR('',#239,1.);
#134=VECTOR('',#240,1.);
#135=VECTOR('',#241,1.);
#136=VECTOR('',#244,1.);
#137=VECTOR('',#245,1.);
#138=VECTOR('',#246,1.);
#139=VECTOR('',#255,1.);
#140=VECTOR('',#256,1.);
#141=EDGE_LOOP('',(#18,#19,#20,#21));
#142=EDGE_LOOP('',(#22,#23,#24,#25));
#143=EDGE_LOOP('',(#26,#27,#28,#29));
#144=EDGE_LOOP('',(#30,#31,#32,#33));
#145=EDGE_LOOP('',(#34,#35,#36,#37));
#146=EDGE_LOOP('',(#38,#39,#40,#41));
#147=EDGE_LOOP('',(#42));
#148=EDGE_LOOP('',(#43));
#149=EDGE_LOOP('',(#44,#45,#46,#47));
#150=EDGE_LOOP('',(#48));
#151=EDGE_LOOP('',(#49,#50,#51,#52,#53,#54,#55));
#152=EDGE_LOOP('',(#56));
#153=EDGE_LOOP('',(#57,#58,#59,#60,#61,#62,#63));
#154=FACE_BOUND('',#141,.T.);
#155=FACE_BOUND('',#142,.T.);
#156=FACE_BOUND('',#143,.T.);
#157=FACE_BOUND('',#144,.T.);
#158=FACE_BOUND('',#145,.T.);
#159=FACE_BOUND('',#146,.T.);
#160=FACE_BOUND('',#147,.T.);
#161=FACE_BOUND('',#148,.T.);
#162=FACE_BOUND('',#149,.T.);
#163=FACE_BOUND('',#150,.T.);
#164=FACE_BOUND('',#151,.T.);
#165=FACE_BOUND('',#152,.T.);
#166=FACE_BOUND('',#153,.T.);
#167=PLANE('',#198);
#168=PLANE('',#199);
#169=PLANE('',#203);
#170=PLANE('',#204);
#171=PLANE('',#205);
#172=PLANE('',#209);
#173=PLANE('',#210);
#174=PLANE('',#211);
#175=ADVANCED_FACE('',(#154),#167,.T.);
#176=ADVANCED_FACE('',(#155),#168,.F.);
#177=ADVANCED_FACE('',(#156),#16,.T.);
#178=ADVANCED_FACE('',(#157),#169,.T.);
#179=ADVANCED_FACE('',(#158),#170,.T.);
#180=ADVANCED_FACE('',(#159),#171,.F.);
#181=ADVANCED_FACE('',(#160,#161),#17,.F.);
#182=ADVANCED_FACE('',(#162),#172,.T.);
#183=ADVANCED_FACE('',(#163,#164),#173,.T.);
#184=ADVANCED_FACE('',(#165,#166),#174,.F.);
#185=CLOSED_SHELL('',(#175,#176,#177,#178,#179,#180,#181,#182,#183,#184));
#186=STYLED_ITEM('',(#187),#194);
#187=PRESENTATION_STYLE_ASSIGNMENT((#188));
#188=SURFACE_STYLE_USAGE(.BOTH.,#189);
#189=SURFACE_SIDE_STYLE('',(#190));
#190=SURFACE_STYLE_FILL_AREA(#191);
#191=FILL_AREA_STYLE('',(#192));
#192=FILL_AREA_STYLE_COLOUR('',#193);
#193=COLOUR_RGB('',0.615686274509804,0.811764705882353,0.929411764705882);
#194=MANIFOLD_SOLID_BREP('Part 1',#185);
#195=SHAPE_DEFINITION_REPRESENTATION(#317,#196);
#196=SHAPE_REPRESENTATION('Part 1',(#197),#312);
#197=AXIS2_PLACEMENT_3D('',#261,#212,#213);
#198=AXIS2_PLACEMENT_3D('',#262,#214,#215);
#199=AXIS2_PLACEMENT_3D('',#271,#220,#221);
#200=AXIS2_PLACEMENT_3D('',#277,#225,#226);
#201=AXIS2_PLACEMENT_3D('',#278,#227,#228);
#202=AXIS2_PLACEMENT_3D('',#282,#230,#231);
#203=AXIS2_PLACEMENT_3D('',#283,#232,#233);
#204=AXIS2_PLACEMENT_3D('',#289,#237,#238);
#205=AXIS2_PLACEMENT_3D('',#295,#242,#243);
#206=AXIS2_PLACEMENT_3D('',#301,#247,#248);
#207=AXIS2_PLACEMENT_3D('',#302,#249,#250);
#208=AXIS2_PLACEMENT_3D('',#304,#251,#252);
#209=AXIS2_PLACEMENT_3D('',#306,#253,#254);
#210=AXIS2_PLACEMENT_3D('',#309,#257,#258);
#211=AXIS2_PLACEMENT_3D('',#310,#259,#260);
#212=DIRECTION('',(0.,0.,1.));
#213=DIRECTION('',(1.,0.,0.));
#214=DIRECTION('',(0.,1.,0.));
#215=DIRECTION('',(0.,0.,1.));
#216=DIRECTION('',(1.,0.,0.));
#217=DIRECTION('',(0.,0.,-1.));
#218=DIRECTION('',(1.,0.,0.));
#219=DIRECTION('',(0.,0.,-1.));
#220=DIRECTION('',(-0.998806281318554,-0.04884682588052,0.));
#221=DIRECTION('',(0.04884682588052,-0.998806281318554,0.));
#222=DIRECTION('',(-0.04884682588052,0.998806281318554,0.));
#223=DIRECTION('',(0.,0.,-1.));
#224=DIRECTION('',(-0.04884682588052,0.998806281318554,0.));
#225=DIRECTION('',(0.,0.,-1.));
#226=DIRECTION('',(-1.,0.,0.));
#227=DIRECTION('',(0.,0.,1.));
#228=DIRECTION('',(0.89709058489511,0.441846673058144,0.));
#229=DIRECTION('',(0.,0.,-1.));
#230=DIRECTION('',(0.,0.,1.));
#231=DIRECTION('',(0.89709058489511,0.441846673058144,0.));
#232=DIRECTION('',(-0.471925975494872,-0.881638176154603,0.));
#233=DIRECTION('',(0.881638176154603,-0.471925975494872,0.));
#234=DIRECTION('',(-0.881638176154603,0.471925975494872,0.));
#235=DIRECTION('',(0.,0.,-1.));
#236=DIRECTION('',(-0.881638176154603,0.471925975494872,0.));
#237=DIRECTION('',(1.,0.,0.));
#238=DIRECTION('',(0.,0.,-1.));
#239=DIRECTION('',(0.,-1.,0.));
#240=DIRECTION('',(0.,0.,-1.));
#241=DIRECTION('',(0.,-1.,0.));
#242=DIRECTION('',(0.,1.,0.));
#243=DIRECTION('',(0.,0.,1.));
#244=DIRECTION('',(1.,0.,0.));
#245=DIRECTION('',(0.,0.,-1.));
#246=DIRECTION('',(1.,0.,0.));
#247=DIRECTION('',(0.,0.,-1.));
#248=DIRECTION('',(-1.,0.,0.));
#249=DIRECTION('',(0.,0.,1.));
#250=DIRECTION('',(1.,0.,0.));
#251=DIRECTION('',(0.,0.,1.));
#252=DIRECTION('',(1.,0.,0.));
#253=DIRECTION('',(1.,0.,0.));
#254=DIRECTION('',(0.,0.,-1.));
#255=DIRECTION('',(0.,-1.,0.));
#256=DIRECTION('',(0.,-1.,0.));
#257=DIRECTION('',(0.,0.,1.));
#258=DIRECTION('',(1.,0.,0.));
#259=DIRECTION('',(0.,0.,1.));
#260=DIRECTION('',(1.,0.,0.));
#261=CARTESIAN_POINT('',(0.,0.,0.));
#262=CARTESIAN_POINT('',(-0.0257833662622436,0.0023220747833508,0.0098));
#263=CARTESIAN_POINT('',(-0.0257833662622436,0.0023220747833508,0.));
#264=CARTESIAN_POINT('',(-0.0260333662622436,0.0023220747833508,0.));
#265=CARTESIAN_POINT('',(-0.0250333662622436,0.0023220747833508,0.));
#266=CARTESIAN_POINT('',(-0.0260333662622436,0.0023220747833508,0.0098));
#267=CARTESIAN_POINT('',(-0.0260333662622436,0.0023220747833508,0.0098));
#268=CARTESIAN_POINT('',(-0.0257833662622436,0.0023220747833508,0.0098));
#269=CARTESIAN_POINT('',(-0.0250333662622436,0.0023220747833508,0.0098));
#270=CARTESIAN_POINT('',(-0.0250333662622436,0.0023220747833508,0.0098));
#271=CARTESIAN_POINT('',(-0.026099812713691,0.0036807533030046,0.0098));
#272=CARTESIAN_POINT('',(-0.026099812713691,0.0036807533030046,0.));
#273=CARTESIAN_POINT('',(-0.0261662591651386,0.00503943182265838,0.));
#274=CARTESIAN_POINT('',(-0.0261662591651386,0.00503943182265838,0.0098));
#275=CARTESIAN_POINT('',(-0.0261662591651386,0.00503943182265838,0.0098));
#276=CARTESIAN_POINT('',(-0.026099812713691,0.0036807533030046,0.0098));
#277=CARTESIAN_POINT('',(-0.0316833662622436,0.0023220747833508,0.0098));
#278=CARTESIAN_POINT('',(-0.0316833662622436,0.0023220747833508,0.));
#279=CARTESIAN_POINT('',(-0.034585711011537,-0.0031,0.));
#280=CARTESIAN_POINT('',(-0.034585711011537,-0.0031,0.0098));
#281=CARTESIAN_POINT('',(-0.034585711011537,-0.0031,0.0098));
#282=CARTESIAN_POINT('',(-0.0316833662622436,0.0023220747833508,0.0098));
#283=CARTESIAN_POINT('',(-0.0303095386368903,-0.0053889626083246,0.0098));
#284=CARTESIAN_POINT('',(-0.0303095386368903,-0.0053889626083246,0.));
#285=CARTESIAN_POINT('',(-0.0260333662622436,-0.0076779252166492,0.));
#286=CARTESIAN_POINT('',(-0.0260333662622436,-0.0076779252166492,0.0098));
#287=CARTESIAN_POINT('',(-0.0260333662622436,-0.0076779252166492,0.0098));
#288=CARTESIAN_POINT('',(-0.0303095386368903,-0.0053889626083246,0.0098));
#289=CARTESIAN_POINT('',(-0.0260333662622436,-0.0075313030161527,0.0098));
#290=CARTESIAN_POINT('',(-0.0260333662622436,-0.0075313030161527,0.));
#291=CARTESIAN_POINT('',(-0.0260333662622436,-0.00738468081565621,0.));
#292=CARTESIAN_POINT('',(-0.0260333662622436,-0.00738468081565621,0.0098));
#293=CARTESIAN_POINT('',(-0.0260333662622436,-0.00738468081565621,0.0098));
#294=CARTESIAN_POINT('',(-0.0260333662622436,-0.0075313030161527,0.0098));
#295=CARTESIAN_POINT('',(-0.0255333662622436,-0.00738468081565621,0.0098));
#296=CARTESIAN_POINT('',(-0.0255333662622436,-0.00738468081565621,0.));
#297=CARTESIAN_POINT('',(-0.0250333662622436,-0.00738468081565621,0.));
#298=CARTESIAN_POINT('',(-0.0250333662622436,-0.00738468081565621,0.0098));
#299=CARTESIAN_POINT('',(-0.0250333662622436,-0.00738468081565621,0.0098));
#300=CARTESIAN_POINT('',(-0.0255333662622436,-0.00738468081565621,0.0098));
#301=CARTESIAN_POINT('',(-0.0316833662622436,0.0023220747833508,0.0098));
#302=CARTESIAN_POINT('',(-0.0316833662622436,0.0023220747833508,0.0098));
#303=CARTESIAN_POINT('',(-0.0270333662622435,0.0023220747833508,0.0098));
#304=CARTESIAN_POINT('',(-0.0316833662622436,0.0023220747833508,0.));
#305=CARTESIAN_POINT('',(-0.0270333662622435,0.0023220747833508,0.));
#306=CARTESIAN_POINT('',(-0.0250333662622436,-0.0025313030161527,0.0098));
#307=CARTESIAN_POINT('',(-0.0250333662622436,-0.0025313030161527,0.));
#308=CARTESIAN_POINT('',(-0.0250333662622436,-0.0025313030161527,0.0098));
#309=CARTESIAN_POINT('',(-0.0314333662622436,0.000397074783350801,0.0098));
#310=CARTESIAN_POINT('',(-0.0314333662622436,0.000397074783350801,0.));
#311=MECHANICAL_DESIGN_GEOMETRIC_PRESENTATION_REPRESENTATION('',(#186),
#312);
#312=(
GEOMETRIC_REPRESENTATION_CONTEXT(3)
GLOBAL_UNCERTAINTY_ASSIGNED_CONTEXT((#313))
GLOBAL_UNIT_ASSIGNED_CONTEXT((#316,#315,#314))
REPRESENTATION_CONTEXT('Part 1','TOP_LEVEL_ASSEMBLY_PART')
);
#313=UNCERTAINTY_MEASURE_WITH_UNIT(LENGTH_MEASURE(1.E-8),#316,
'DISTANCE_ACCURACY_VALUE','Maximum Tolerance applied to model');
#314=(
NAMED_UNIT(*)
SI_UNIT($,.STERADIAN.)
SOLID_ANGLE_UNIT()
);
#315=(
NAMED_UNIT(*)
PLANE_ANGLE_UNIT()
SI_UNIT($,.RADIAN.)
);
#316=(
LENGTH_UNIT()
NAMED_UNIT(*)
SI_UNIT($,.METRE.)
);
#317=PRODUCT_DEFINITION_SHAPE('','',#318);
#318=PRODUCT_DEFINITION('','',#320,#319);
#319=PRODUCT_DEFINITION_CONTEXT('',#326,'design');
#320=PRODUCT_DEFINITION_FORMATION_WITH_SPECIFIED_SOURCE('','',#322,
 .NOT_KNOWN.);
#321=PRODUCT_RELATED_PRODUCT_CATEGORY('','',(#322));
#322=PRODUCT('Part 1','Part 1','Part 1',(#324));
#323=PRODUCT_CATEGORY('','');
#324=PRODUCT_CONTEXT('',#326,'mechanical');
#325=APPLICATION_PROTOCOL_DEFINITION('international standard',
'ap242_managed_model_based_3d_engineering',2020,#326);
#326=APPLICATION_CONTEXT('managed model based 3d engineering');
ENDSEC;
END-ISO-10303-21;
